<?xml version="1.0" standalone="no"?>
<!DOCTYPE svg PUBLIC "-//W3C//DTD SVG 20010904//EN"
 "http://www.w3.org/TR/2001/REC-SVG-20010904/DTD/svg10.dtd">
<svg version="1.0" xmlns="http://www.w3.org/2000/svg"
 width="700.000000pt" height="700.000000pt" viewBox="0 0 700.000000 700.000000"
 preserveAspectRatio="xMidYMid meet">
<metadata>
Created by potrace 1.14, written by Peter Selinger 2001-2017
</metadata>
<g transform="translate(0.000000,700.000000) scale(0.100000,-0.100000)"
fill="#000000" stroke="none">
<path d="M2317 6124 c-1 -1 -36 -5 -77 -8 -123 -11 -151 -16 -250 -41 -366
-92 -667 -272 -917 -548 -95 -105 -181 -232 -313 -462 -59 -102 -197 -336
-215 -365 -13 -19 -91 -152 -175 -295 -84 -143 -192 -325 -240 -405 -47 -80
-96 -166 -108 -191 l-23 -47 3 -1178 3 -1179 24 -65 c91 -254 282 -419 527
-456 27 -4 519 -8 1094 -8 l1045 0 85 22 c157 41 285 115 420 242 90 85 151
115 256 126 124 13 250 -37 362 -145 87 -85 141 -123 235 -166 78 -36 161 -60
247 -72 30 -4 523 -7 1095 -7 961 1 1045 2 1105 18 184 50 337 171 413 329 69
142 66 79 66 1307 0 821 3 1115 12 1131 11 22 8 107 -7 144 -4 11 -18 34 -31
51 -13 17 -23 33 -23 36 0 3 -112 196 -250 428 -137 232 -250 427 -250 431 0
5 -4 9 -10 9 -5 0 -10 4 -10 9 0 13 -306 527 -357 601 -88 125 -221 265 -349
368 -298 238 -715 388 -1079 385 -93 0 -139 -17 -191 -71 -58 -60 -60 -78 -59
-482 1 -326 4 -370 19 -408 33 -79 120 -132 214 -132 156 0 338 -102 429 -240
54 -83 73 -147 99 -340 38 -286 38 -281 26 -288 -16 -11 -3337 -6 -3336 4 1 5
5 32 8 59 4 28 8 61 11 75 2 14 7 48 10 75 23 191 37 271 58 320 71 171 233
300 407 325 203 29 234 44 280 136 l25 49 -1 375 c-1 413 -1 413 -64 479 -43
45 -92 63 -173 65 -37 2 -68 1 -70 0z m-129 -569 l-1 -111 -64 -18 c-183 -53
-388 -202 -508 -370 -100 -141 -144 -263 -175 -483 -11 -82 -23 -165 -26 -185
-12 -88 -26 -200 -27 -215 0 -7 -3 -13 -6 -14 -35 -5 -634 -2 -638 4 -2 4 18
44 45 90 28 45 59 98 70 117 10 19 97 166 192 325 95 160 181 305 191 323 108
188 283 365 474 477 129 76 305 145 430 167 45 9 45 10 43 -107z m2747 88
c280 -69 559 -257 739 -497 39 -53 158 -246 216 -351 12 -22 28 -47 36 -56 8
-8 14 -19 14 -23 0 -7 151 -265 181 -308 11 -15 19 -29 19 -32 0 -3 27 -50 60
-104 33 -55 60 -104 60 -108 0 -11 -620 -12 -636 -1 -6 3 -15 39 -19 79 -5 40
-9 75 -10 78 0 3 -4 32 -9 65 -42 330 -64 423 -128 550 -115 228 -352 426
-587 491 l-58 16 -1 106 c-1 58 1 109 4 114 5 8 15 7 119 -19z m1584 -1952
l21 -24 0 -1104 c0 -1201 3 -1139 -56 -1195 -63 -59 -23 -57 -1106 -56 -608 0
-1014 4 -1048 10 -79 14 -144 51 -219 124 -176 173 -381 257 -621 257 -222 -1
-418 -79 -576 -230 -100 -96 -160 -132 -251 -152 -61 -13 -2019 -12 -2063 1
-58 17 -106 56 -135 110 l-28 51 0 1087 c0 1014 1 1088 17 1112 10 15 27 29
39 31 12 2 1368 3 3014 3 l2991 -1 21 -24z"/>
<path d="M1105 3279 c-87 -6 -126 -22 -166 -66 -66 -70 -63 -39 -64 -678 -1
-660 -2 -652 71 -722 24 -23 60 -47 81 -52 25 -7 341 -11 948 -11 l910 0 52
24 c59 28 109 88 119 145 4 20 7 295 7 611 0 627 1 608 -59 679 -37 44 -90 67
-161 70 -131 6 -1664 6 -1738 0z m1515 -438 c4 -1 5 -613 1 -646 -1 -7 -221
-9 -643 -8 -354 1 -648 2 -654 3 -13 0 -17 641 -4 650 7 4 1282 5 1300 1z"/>
<path d="M4160 3279 c-77 -6 -131 -30 -167 -73 -57 -68 -56 -50 -55 -691 0
-414 3 -599 11 -619 19 -47 50 -85 95 -114 l41 -27 923 -3 c590 -1 937 1 960
8 49 13 108 62 134 113 22 42 22 46 22 637 l0 595 -23 50 c-25 57 -75 100
-134 116 -42 11 -1687 19 -1807 8z m1527 -762 l1 -327 -126 -1 c-106 0 -991 0
-1142 1 l-45 0 1 323 c1 177 2 324 3 327 0 3 295 5 653 5 l653 0 2 -328z"/>
</g>
</svg>
